<mxfile host="app.diagrams.net" agent="Mozilla/5.0 (Windows NT 10.0; Win64; x64) AppleWebKit/537.36 (KHTML, like Gecko) Chrome/135.0.0.0 Safari/537.36" version="26.2.13">
  <diagram name="PÃ¡gina-1" id="u5RyIIWz56YAsa24G3Gc">
    <mxGraphModel dx="719" dy="2281" grid="1" gridSize="10" guides="1" tooltips="1" connect="1" arrows="1" fold="1" page="0" pageScale="1" pageWidth="827" pageHeight="1169" math="0" shadow="0">
      <root>
        <mxCell id="0" />
        <mxCell id="1" parent="0" />
        <mxCell id="pgb4HlOkiDtCLSu0nFpp-1" value="Usuario" style="swimlane;fontStyle=1;align=center;verticalAlign=top;childLayout=stackLayout;horizontal=1;startSize=26;horizontalStack=0;resizeParent=1;resizeParentMax=0;resizeLast=0;collapsible=1;marginBottom=0;whiteSpace=wrap;html=1;" vertex="1" parent="1">
          <mxGeometry x="90" y="-471" width="160" height="60" as="geometry" />
        </mxCell>
        <mxCell id="pgb4HlOkiDtCLSu0nFpp-2" value="-nombre: String" style="text;strokeColor=none;fillColor=none;align=left;verticalAlign=top;spacingLeft=4;spacingRight=4;overflow=hidden;rotatable=0;points=[[0,0.5],[1,0.5]];portConstraint=eastwest;whiteSpace=wrap;html=1;" vertex="1" parent="pgb4HlOkiDtCLSu0nFpp-1">
          <mxGeometry y="26" width="160" height="26" as="geometry" />
        </mxCell>
        <mxCell id="pgb4HlOkiDtCLSu0nFpp-3" value="" style="line;strokeWidth=1;fillColor=none;align=left;verticalAlign=middle;spacingTop=-1;spacingLeft=3;spacingRight=3;rotatable=0;labelPosition=right;points=[];portConstraint=eastwest;strokeColor=inherit;" vertex="1" parent="pgb4HlOkiDtCLSu0nFpp-1">
          <mxGeometry y="52" width="160" height="8" as="geometry" />
        </mxCell>
        <mxCell id="pgb4HlOkiDtCLSu0nFpp-5" value="&lt;span style=&quot;font-weight: normal;&quot;&gt;&amp;lt;Context&amp;gt;&lt;/span&gt;&lt;br&gt;AutoEnAlquiler" style="swimlane;fontStyle=1;align=center;verticalAlign=top;childLayout=stackLayout;horizontal=1;startSize=40;horizontalStack=0;resizeParent=1;resizeParentMax=0;resizeLast=0;collapsible=1;marginBottom=0;whiteSpace=wrap;html=1;" vertex="1" parent="1">
          <mxGeometry x="460" y="-517" width="160" height="152" as="geometry" />
        </mxCell>
        <mxCell id="pgb4HlOkiDtCLSu0nFpp-6" value="-precioPorDia: Real" style="text;strokeColor=none;fillColor=none;align=left;verticalAlign=top;spacingLeft=4;spacingRight=4;overflow=hidden;rotatable=0;points=[[0,0.5],[1,0.5]];portConstraint=eastwest;whiteSpace=wrap;html=1;" vertex="1" parent="pgb4HlOkiDtCLSu0nFpp-5">
          <mxGeometry y="40" width="160" height="26" as="geometry" />
        </mxCell>
        <mxCell id="pgb4HlOkiDtCLSu0nFpp-9" value="-cantidadPlazas: Integer" style="text;strokeColor=none;fillColor=none;align=left;verticalAlign=top;spacingLeft=4;spacingRight=4;overflow=hidden;rotatable=0;points=[[0,0.5],[1,0.5]];portConstraint=eastwest;whiteSpace=wrap;html=1;" vertex="1" parent="pgb4HlOkiDtCLSu0nFpp-5">
          <mxGeometry y="66" width="160" height="26" as="geometry" />
        </mxCell>
        <mxCell id="pgb4HlOkiDtCLSu0nFpp-10" value="-marca: String" style="text;strokeColor=none;fillColor=none;align=left;verticalAlign=top;spacingLeft=4;spacingRight=4;overflow=hidden;rotatable=0;points=[[0,0.5],[1,0.5]];portConstraint=eastwest;whiteSpace=wrap;html=1;" vertex="1" parent="pgb4HlOkiDtCLSu0nFpp-5">
          <mxGeometry y="92" width="160" height="26" as="geometry" />
        </mxCell>
        <mxCell id="pgb4HlOkiDtCLSu0nFpp-7" value="" style="line;strokeWidth=1;fillColor=none;align=left;verticalAlign=middle;spacingTop=-1;spacingLeft=3;spacingRight=3;rotatable=0;labelPosition=right;points=[];portConstraint=eastwest;strokeColor=inherit;" vertex="1" parent="pgb4HlOkiDtCLSu0nFpp-5">
          <mxGeometry y="118" width="160" height="8" as="geometry" />
        </mxCell>
        <mxCell id="pgb4HlOkiDtCLSu0nFpp-44" value="+getPrecioPorDia():Real" style="text;strokeColor=none;fillColor=none;align=left;verticalAlign=top;spacingLeft=4;spacingRight=4;overflow=hidden;rotatable=0;points=[[0,0.5],[1,0.5]];portConstraint=eastwest;whiteSpace=wrap;html=1;" vertex="1" parent="pgb4HlOkiDtCLSu0nFpp-5">
          <mxGeometry y="126" width="160" height="26" as="geometry" />
        </mxCell>
        <mxCell id="pgb4HlOkiDtCLSu0nFpp-11" value="Reserva" style="swimlane;fontStyle=1;align=center;verticalAlign=top;childLayout=stackLayout;horizontal=1;startSize=26;horizontalStack=0;resizeParent=1;resizeParentMax=0;resizeLast=0;collapsible=1;marginBottom=0;whiteSpace=wrap;html=1;" vertex="1" parent="1">
          <mxGeometry x="240" y="-310" width="190" height="150" as="geometry" />
        </mxCell>
        <mxCell id="pgb4HlOkiDtCLSu0nFpp-12" value="-cantidadDias: Integer" style="text;strokeColor=none;fillColor=none;align=left;verticalAlign=top;spacingLeft=4;spacingRight=4;overflow=hidden;rotatable=0;points=[[0,0.5],[1,0.5]];portConstraint=eastwest;whiteSpace=wrap;html=1;" vertex="1" parent="pgb4HlOkiDtCLSu0nFpp-11">
          <mxGeometry y="26" width="190" height="26" as="geometry" />
        </mxCell>
        <mxCell id="pgb4HlOkiDtCLSu0nFpp-15" value="-fecha:Date" style="text;strokeColor=none;fillColor=none;align=left;verticalAlign=top;spacingLeft=4;spacingRight=4;overflow=hidden;rotatable=0;points=[[0,0.5],[1,0.5]];portConstraint=eastwest;whiteSpace=wrap;html=1;" vertex="1" parent="pgb4HlOkiDtCLSu0nFpp-11">
          <mxGeometry y="52" width="190" height="26" as="geometry" />
        </mxCell>
        <mxCell id="pgb4HlOkiDtCLSu0nFpp-13" value="" style="line;strokeWidth=1;fillColor=none;align=left;verticalAlign=middle;spacingTop=-1;spacingLeft=3;spacingRight=3;rotatable=0;labelPosition=right;points=[];portConstraint=eastwest;strokeColor=inherit;" vertex="1" parent="pgb4HlOkiDtCLSu0nFpp-11">
          <mxGeometry y="78" width="190" height="8" as="geometry" />
        </mxCell>
        <mxCell id="pgb4HlOkiDtCLSu0nFpp-14" value="+montoAPagar():Real" style="text;strokeColor=none;fillColor=none;align=left;verticalAlign=top;spacingLeft=4;spacingRight=4;overflow=hidden;rotatable=0;points=[[0,0.5],[1,0.5]];portConstraint=eastwest;whiteSpace=wrap;html=1;" vertex="1" parent="pgb4HlOkiDtCLSu0nFpp-11">
          <mxGeometry y="86" width="190" height="26" as="geometry" />
        </mxCell>
        <mxCell id="pgb4HlOkiDtCLSu0nFpp-16" value="+montoAReembolsar():Real" style="text;strokeColor=none;fillColor=none;align=left;verticalAlign=top;spacingLeft=4;spacingRight=4;overflow=hidden;rotatable=0;points=[[0,0.5],[1,0.5]];portConstraint=eastwest;whiteSpace=wrap;html=1;" vertex="1" parent="pgb4HlOkiDtCLSu0nFpp-11">
          <mxGeometry y="112" width="190" height="38" as="geometry" />
        </mxCell>
        <mxCell id="pgb4HlOkiDtCLSu0nFpp-17" value="1" style="html=1;verticalAlign=bottom;endArrow=block;curved=0;rounded=0;fontSize=12;startSize=8;endSize=8;" edge="1" parent="1" source="pgb4HlOkiDtCLSu0nFpp-11" target="pgb4HlOkiDtCLSu0nFpp-5">
          <mxGeometry width="80" relative="1" as="geometry">
            <mxPoint x="310" y="-450" as="sourcePoint" />
            <mxPoint x="390" y="-450" as="targetPoint" />
          </mxGeometry>
        </mxCell>
        <mxCell id="pgb4HlOkiDtCLSu0nFpp-18" value="conductor" style="html=1;verticalAlign=bottom;endArrow=block;curved=0;rounded=0;fontSize=12;startSize=8;endSize=8;" edge="1" parent="1" source="pgb4HlOkiDtCLSu0nFpp-11" target="pgb4HlOkiDtCLSu0nFpp-1">
          <mxGeometry x="0.6464" y="28" width="80" relative="1" as="geometry">
            <mxPoint x="310" y="-450" as="sourcePoint" />
            <mxPoint x="390" y="-450" as="targetPoint" />
            <mxPoint x="1" as="offset" />
          </mxGeometry>
        </mxCell>
        <mxCell id="pgb4HlOkiDtCLSu0nFpp-19" value="autosEnAlquiler*" style="html=1;verticalAlign=bottom;endArrow=block;curved=0;rounded=0;fontSize=12;startSize=8;endSize=8;" edge="1" parent="1" source="pgb4HlOkiDtCLSu0nFpp-1" target="pgb4HlOkiDtCLSu0nFpp-5">
          <mxGeometry width="80" relative="1" as="geometry">
            <mxPoint x="310" y="-450" as="sourcePoint" />
            <mxPoint x="390" y="-450" as="targetPoint" />
            <mxPoint as="offset" />
          </mxGeometry>
        </mxCell>
        <mxCell id="pgb4HlOkiDtCLSu0nFpp-20" value="&lt;div&gt;&lt;span style=&quot;font-weight: normal;&quot;&gt;&amp;lt;Strategy&amp;gt;&lt;/span&gt;&lt;/div&gt;&lt;i&gt;PoliticaCancelacion&lt;/i&gt;" style="swimlane;fontStyle=1;align=center;verticalAlign=top;childLayout=stackLayout;horizontal=1;startSize=37;horizontalStack=0;resizeParent=1;resizeParentMax=0;resizeLast=0;collapsible=1;marginBottom=0;whiteSpace=wrap;html=1;" vertex="1" parent="1">
          <mxGeometry x="740" y="-482.5" width="180" height="83" as="geometry" />
        </mxCell>
        <mxCell id="pgb4HlOkiDtCLSu0nFpp-22" value="" style="line;strokeWidth=1;fillColor=none;align=left;verticalAlign=middle;spacingTop=-1;spacingLeft=3;spacingRight=3;rotatable=0;labelPosition=right;points=[];portConstraint=eastwest;strokeColor=inherit;" vertex="1" parent="pgb4HlOkiDtCLSu0nFpp-20">
          <mxGeometry y="37" width="180" height="8" as="geometry" />
        </mxCell>
        <mxCell id="pgb4HlOkiDtCLSu0nFpp-45" value="+montoAReembolsar(Reserva reserva):Real" style="text;strokeColor=none;fillColor=none;align=left;verticalAlign=top;spacingLeft=4;spacingRight=4;overflow=hidden;rotatable=0;points=[[0,0.5],[1,0.5]];portConstraint=eastwest;whiteSpace=wrap;html=1;fontStyle=2" vertex="1" parent="pgb4HlOkiDtCLSu0nFpp-20">
          <mxGeometry y="45" width="180" height="38" as="geometry" />
        </mxCell>
        <mxCell id="pgb4HlOkiDtCLSu0nFpp-28" value="&lt;span style=&quot;font-weight: normal;&quot;&gt;&amp;lt;ConcreteStrategy&amp;gt;&lt;/span&gt;&lt;br&gt;PoliticaFlexible" style="swimlane;fontStyle=1;align=center;verticalAlign=top;childLayout=stackLayout;horizontal=1;startSize=40;horizontalStack=0;resizeParent=1;resizeParentMax=0;resizeLast=0;collapsible=1;marginBottom=0;whiteSpace=wrap;html=1;" vertex="1" parent="1">
          <mxGeometry x="550" y="-310" width="180" height="86" as="geometry" />
        </mxCell>
        <mxCell id="pgb4HlOkiDtCLSu0nFpp-30" value="" style="line;strokeWidth=1;fillColor=none;align=left;verticalAlign=middle;spacingTop=-1;spacingLeft=3;spacingRight=3;rotatable=0;labelPosition=right;points=[];portConstraint=eastwest;strokeColor=inherit;" vertex="1" parent="pgb4HlOkiDtCLSu0nFpp-28">
          <mxGeometry y="40" width="180" height="8" as="geometry" />
        </mxCell>
        <mxCell id="pgb4HlOkiDtCLSu0nFpp-47" value="+montoAReembolsar(Reserva reserva):Real" style="text;strokeColor=none;fillColor=none;align=left;verticalAlign=top;spacingLeft=4;spacingRight=4;overflow=hidden;rotatable=0;points=[[0,0.5],[1,0.5]];portConstraint=eastwest;whiteSpace=wrap;html=1;fontStyle=0" vertex="1" parent="pgb4HlOkiDtCLSu0nFpp-28">
          <mxGeometry y="48" width="180" height="38" as="geometry" />
        </mxCell>
        <mxCell id="pgb4HlOkiDtCLSu0nFpp-32" value="&lt;span style=&quot;font-weight: 400;&quot;&gt;&amp;lt;ConcreteStrategy&amp;gt;&lt;/span&gt;&lt;br&gt;PoliticaModerada" style="swimlane;fontStyle=1;align=center;verticalAlign=top;childLayout=stackLayout;horizontal=1;startSize=40;horizontalStack=0;resizeParent=1;resizeParentMax=0;resizeLast=0;collapsible=1;marginBottom=0;whiteSpace=wrap;html=1;" vertex="1" parent="1">
          <mxGeometry x="740" y="-310" width="180" height="86" as="geometry" />
        </mxCell>
        <mxCell id="pgb4HlOkiDtCLSu0nFpp-34" value="" style="line;strokeWidth=1;fillColor=none;align=left;verticalAlign=middle;spacingTop=-1;spacingLeft=3;spacingRight=3;rotatable=0;labelPosition=right;points=[];portConstraint=eastwest;strokeColor=inherit;" vertex="1" parent="pgb4HlOkiDtCLSu0nFpp-32">
          <mxGeometry y="40" width="180" height="8" as="geometry" />
        </mxCell>
        <mxCell id="pgb4HlOkiDtCLSu0nFpp-48" value="+montoAReembolsar(Reserva reserva):Real" style="text;strokeColor=none;fillColor=none;align=left;verticalAlign=top;spacingLeft=4;spacingRight=4;overflow=hidden;rotatable=0;points=[[0,0.5],[1,0.5]];portConstraint=eastwest;whiteSpace=wrap;html=1;fontStyle=0" vertex="1" parent="pgb4HlOkiDtCLSu0nFpp-32">
          <mxGeometry y="48" width="180" height="38" as="geometry" />
        </mxCell>
        <mxCell id="pgb4HlOkiDtCLSu0nFpp-36" value="&lt;span style=&quot;font-weight: 400;&quot;&gt;&amp;lt;ConcreteStrategy&amp;gt;&lt;/span&gt;&lt;br&gt;PoliticaEstricta" style="swimlane;fontStyle=1;align=center;verticalAlign=top;childLayout=stackLayout;horizontal=1;startSize=40;horizontalStack=0;resizeParent=1;resizeParentMax=0;resizeLast=0;collapsible=1;marginBottom=0;whiteSpace=wrap;html=1;" vertex="1" parent="1">
          <mxGeometry x="930" y="-310" width="180" height="86" as="geometry" />
        </mxCell>
        <mxCell id="pgb4HlOkiDtCLSu0nFpp-38" value="" style="line;strokeWidth=1;fillColor=none;align=left;verticalAlign=middle;spacingTop=-1;spacingLeft=3;spacingRight=3;rotatable=0;labelPosition=right;points=[];portConstraint=eastwest;strokeColor=inherit;" vertex="1" parent="pgb4HlOkiDtCLSu0nFpp-36">
          <mxGeometry y="40" width="180" height="8" as="geometry" />
        </mxCell>
        <mxCell id="pgb4HlOkiDtCLSu0nFpp-49" value="+montoAReembolsar(Reserva reserva):Real" style="text;strokeColor=none;fillColor=none;align=left;verticalAlign=top;spacingLeft=4;spacingRight=4;overflow=hidden;rotatable=0;points=[[0,0.5],[1,0.5]];portConstraint=eastwest;whiteSpace=wrap;html=1;fontStyle=0" vertex="1" parent="pgb4HlOkiDtCLSu0nFpp-36">
          <mxGeometry y="48" width="180" height="38" as="geometry" />
        </mxCell>
        <mxCell id="pgb4HlOkiDtCLSu0nFpp-40" value="politica" style="html=1;verticalAlign=bottom;endArrow=block;curved=0;rounded=0;fontSize=12;startSize=8;endSize=8;" edge="1" parent="1" source="pgb4HlOkiDtCLSu0nFpp-5" target="pgb4HlOkiDtCLSu0nFpp-20">
          <mxGeometry width="80" relative="1" as="geometry">
            <mxPoint x="360" y="-190" as="sourcePoint" />
            <mxPoint x="440" y="-190" as="targetPoint" />
          </mxGeometry>
        </mxCell>
        <mxCell id="pgb4HlOkiDtCLSu0nFpp-41" value="Extends" style="endArrow=block;endSize=16;endFill=0;html=1;rounded=0;fontSize=12;curved=1;" edge="1" parent="1" source="pgb4HlOkiDtCLSu0nFpp-28" target="pgb4HlOkiDtCLSu0nFpp-20">
          <mxGeometry width="160" relative="1" as="geometry">
            <mxPoint x="320" y="-190" as="sourcePoint" />
            <mxPoint x="480" y="-190" as="targetPoint" />
          </mxGeometry>
        </mxCell>
        <mxCell id="pgb4HlOkiDtCLSu0nFpp-42" value="Extends" style="endArrow=block;endSize=16;endFill=0;html=1;rounded=0;fontSize=12;curved=1;" edge="1" parent="1" source="pgb4HlOkiDtCLSu0nFpp-32" target="pgb4HlOkiDtCLSu0nFpp-20">
          <mxGeometry width="160" relative="1" as="geometry">
            <mxPoint x="691" y="-300" as="sourcePoint" />
            <mxPoint x="789" y="-401" as="targetPoint" />
          </mxGeometry>
        </mxCell>
        <mxCell id="pgb4HlOkiDtCLSu0nFpp-43" value="Extends" style="endArrow=block;endSize=16;endFill=0;html=1;rounded=0;fontSize=12;curved=1;" edge="1" parent="1" source="pgb4HlOkiDtCLSu0nFpp-36" target="pgb4HlOkiDtCLSu0nFpp-20">
          <mxGeometry width="160" relative="1" as="geometry">
            <mxPoint x="830" y="-300" as="sourcePoint" />
            <mxPoint x="830" y="-401" as="targetPoint" />
          </mxGeometry>
        </mxCell>
      </root>
    </mxGraphModel>
  </diagram>
</mxfile>
